<svg xmlns="http://www.w3.org/2000/svg" viewBox="0 0 3840 2160" preserveAspectRatio="xMidYMid slice">
<defs>
<radialGradient id="space" cx="60%" cy="40%">
<stop offset="0%" stop-color="#0b2a64"/>
<stop offset="45%" stop-color="#06112b"/>
<stop offset="100%" stop-color="#01040c"/>
</radialGradient>
<radialGradient id="nebula1" cx="52%" cy="34%">
<stop offset="0%" stop-color="#804dff" stop-opacity=".72"/>
<stop offset="38%" stop-color="#5e42ff" stop-opacity=".25"/>
<stop offset="100%" stop-color="#000" stop-opacity="0"/>
</radialGradient>
<radialGradient id="planet" cx="35%" cy="35%">
<stop offset="0%" stop-color="#dff6ff"/>
<stop offset="40%" stop-color="#2f91e8"/>
<stop offset="100%" stop-color="#07101f"/>
</radialGradient>
<filter id="glow"><feGaussianBlur stdDeviation="18" result="b"/><feMerge><feMergeNode in="b"/><feMergeNode in="SourceGraphic"/></feMerge></filter>
<linearGradient id="shipMetal" x1="0" x2="1"><stop offset="0" stop-color="#050915"/><stop offset=".28" stop-color="#e8f4ff"/><stop offset=".55" stop-color="#6d7f98"/><stop offset="1" stop-color="#0b1220"/></linearGradient>
<linearGradient id="blue" x1="0" x2="1"><stop offset="0" stop-color="#2ee7ff"/><stop offset=".6" stop-color="#1177ff"/><stop offset="1" stop-color="#7b4dff"/></linearGradient>
</defs>
<rect width="3840" height="2160" fill="url(#space)"/>
<ellipse cx="2180" cy="780" rx="1200" ry="420" fill="url(#nebula1)" opacity=".55" transform="rotate(-18 2180 780)"/>
<path d="M300 1440 C850 1180 1340 1050 1980 1080 C2530 1105 3130 1280 3700 1600 L3700 2160 L0 2160 L0 1660 C90 1588 190 1515 300 1440Z" fill="#0b64d8" opacity=".18"/>
<path d="M0 1745 C700 1465 1580 1430 2370 1515 C2920 1576 3360 1725 3840 1940 L3840 2160 L0 2160Z" fill="#2fb8ff" opacity=".12"/>
<circle cx="3210" cy="390" r="185" fill="url(#planet)" opacity=".82"/>
<circle cx="3310" cy="310" r="80" fill="#020712" opacity=".45"/>
<g opacity=".9">
<circle cx="0" cy="60" r="1.2" fill="#fff" opacity="0.25"/><circle cx="379" cy="271" r="2.2" fill="#fff" opacity="0.35"/><circle cx="758" cy="482" r="3.2" fill="#fff" opacity="0.45"/><circle cx="1137" cy="693" r="1.2" fill="#fff" opacity="0.55"/><circle cx="1516" cy="904" r="2.2" fill="#fff" opacity="0.65"/><circle cx="1895" cy="1115" r="3.2" fill="#fff" opacity="0.75"/><circle cx="2274" cy="1326" r="1.2" fill="#fff" opacity="0.85"/><circle cx="2653" cy="157" r="2.2" fill="#fff" opacity="0.25"/><circle cx="3032" cy="368" r="3.2" fill="#fff" opacity="0.35"/><circle cx="3411" cy="579" r="1.2" fill="#fff" opacity="0.45"/><circle cx="3790" cy="790" r="2.2" fill="#fff" opacity="0.55"/><circle cx="329" cy="1001" r="3.2" fill="#fff" opacity="0.65"/><circle cx="708" cy="1212" r="1.2" fill="#fff" opacity="0.75"/><circle cx="1087" cy="1423" r="2.2" fill="#fff" opacity="0.85"/><circle cx="1466" cy="254" r="3.2" fill="#fff" opacity="0.25"/><circle cx="1845" cy="465" r="1.2" fill="#fff" opacity="0.35"/><circle cx="2224" cy="676" r="2.2" fill="#fff" opacity="0.45"/><circle cx="2603" cy="887" r="3.2" fill="#fff" opacity="0.55"/><circle cx="2982" cy="1098" r="1.2" fill="#fff" opacity="0.65"/><circle cx="3361" cy="1309" r="2.2" fill="#fff" opacity="0.75"/><circle cx="3740" cy="140" r="3.2" fill="#fff" opacity="0.85"/><circle cx="279" cy="351" r="1.2" fill="#fff" opacity="0.25"/><circle cx="658" cy="562" r="2.2" fill="#fff" opacity="0.35"/><circle cx="1037" cy="773" r="3.2" fill="#fff" opacity="0.45"/><circle cx="1416" cy="984" r="1.2" fill="#fff" opacity="0.55"/><circle cx="1795" cy="1195" r="2.2" fill="#fff" opacity="0.65"/><circle cx="2174" cy="1406" r="3.2" fill="#fff" opacity="0.75"/><circle cx="2553" cy="237" r="1.2" fill="#fff" opacity="0.85"/><circle cx="2932" cy="448" r="2.2" fill="#fff" opacity="0.25"/><circle cx="3311" cy="659" r="3.2" fill="#fff" opacity="0.35"/><circle cx="3690" cy="870" r="1.2" fill="#fff" opacity="0.45"/><circle cx="229" cy="1081" r="2.2" fill="#fff" opacity="0.55"/><circle cx="608" cy="1292" r="3.2" fill="#fff" opacity="0.65"/><circle cx="987" cy="123" r="1.2" fill="#fff" opacity="0.75"/><circle cx="1366" cy="334" r="2.2" fill="#fff" opacity="0.85"/><circle cx="1745" cy="545" r="3.2" fill="#fff" opacity="0.25"/><circle cx="2124" cy="756" r="1.2" fill="#fff" opacity="0.35"/><circle cx="2503" cy="967" r="2.2" fill="#fff" opacity="0.45"/><circle cx="2882" cy="1178" r="3.2" fill="#fff" opacity="0.55"/><circle cx="3261" cy="1389" r="1.2" fill="#fff" opacity="0.65"/><circle cx="3640" cy="220" r="2.2" fill="#fff" opacity="0.75"/><circle cx="179" cy="431" r="3.2" fill="#fff" opacity="0.85"/><circle cx="558" cy="642" r="1.2" fill="#fff" opacity="0.25"/><circle cx="937" cy="853" r="2.2" fill="#fff" opacity="0.35"/><circle cx="1316" cy="1064" r="3.2" fill="#fff" opacity="0.45"/><circle cx="1695" cy="1275" r="1.2" fill="#fff" opacity="0.55"/><circle cx="2074" cy="106" r="2.2" fill="#fff" opacity="0.65"/><circle cx="2453" cy="317" r="3.2" fill="#fff" opacity="0.75"/><circle cx="2832" cy="528" r="1.2" fill="#fff" opacity="0.85"/><circle cx="3211" cy="739" r="2.2" fill="#fff" opacity="0.25"/><circle cx="3590" cy="950" r="3.2" fill="#fff" opacity="0.35"/><circle cx="129" cy="1161" r="1.2" fill="#fff" opacity="0.45"/><circle cx="508" cy="1372" r="2.2" fill="#fff" opacity="0.55"/><circle cx="887" cy="203" r="3.2" fill="#fff" opacity="0.65"/><circle cx="1266" cy="414" r="1.2" fill="#fff" opacity="0.75"/><circle cx="1645" cy="625" r="2.2" fill="#fff" opacity="0.85"/><circle cx="2024" cy="836" r="3.2" fill="#fff" opacity="0.25"/><circle cx="2403" cy="1047" r="1.2" fill="#fff" opacity="0.35"/><circle cx="2782" cy="1258" r="2.2" fill="#fff" opacity="0.45"/><circle cx="3161" cy="89" r="3.2" fill="#fff" opacity="0.55"/><circle cx="3540" cy="300" r="1.2" fill="#fff" opacity="0.65"/><circle cx="79" cy="511" r="2.2" fill="#fff" opacity="0.75"/><circle cx="458" cy="722" r="3.2" fill="#fff" opacity="0.85"/><circle cx="837" cy="933" r="1.2" fill="#fff" opacity="0.25"/><circle cx="1216" cy="1144" r="2.2" fill="#fff" opacity="0.35"/><circle cx="1595" cy="1355" r="3.2" fill="#fff" opacity="0.45"/><circle cx="1974" cy="186" r="1.2" fill="#fff" opacity="0.55"/><circle cx="2353" cy="397" r="2.2" fill="#fff" opacity="0.65"/><circle cx="2732" cy="608" r="3.2" fill="#fff" opacity="0.75"/><circle cx="3111" cy="819" r="1.2" fill="#fff" opacity="0.85"/><circle cx="3490" cy="1030" r="2.2" fill="#fff" opacity="0.25"/><circle cx="29" cy="1241" r="3.2" fill="#fff" opacity="0.35"/><circle cx="408" cy="72" r="1.2" fill="#fff" opacity="0.45"/><circle cx="787" cy="283" r="2.2" fill="#fff" opacity="0.55"/><circle cx="1166" cy="494" r="3.2" fill="#fff" opacity="0.65"/><circle cx="1545" cy="705" r="1.2" fill="#fff" opacity="0.75"/><circle cx="1924" cy="916" r="2.2" fill="#fff" opacity="0.85"/><circle cx="2303" cy="1127" r="3.2" fill="#fff" opacity="0.25"/><circle cx="2682" cy="1338" r="1.2" fill="#fff" opacity="0.35"/><circle cx="3061" cy="169" r="2.2" fill="#fff" opacity="0.45"/><circle cx="3440" cy="380" r="3.2" fill="#fff" opacity="0.55"/><circle cx="3819" cy="591" r="1.2" fill="#fff" opacity="0.65"/><circle cx="358" cy="802" r="2.2" fill="#fff" opacity="0.75"/><circle cx="737" cy="1013" r="3.2" fill="#fff" opacity="0.85"/><circle cx="1116" cy="1224" r="1.2" fill="#fff" opacity="0.25"/><circle cx="1495" cy="1435" r="2.2" fill="#fff" opacity="0.35"/><circle cx="1874" cy="266" r="3.2" fill="#fff" opacity="0.45"/><circle cx="2253" cy="477" r="1.2" fill="#fff" opacity="0.55"/><circle cx="2632" cy="688" r="2.2" fill="#fff" opacity="0.65"/><circle cx="3011" cy="899" r="3.2" fill="#fff" opacity="0.75"/><circle cx="3390" cy="1110" r="1.2" fill="#fff" opacity="0.85"/><circle cx="3769" cy="1321" r="2.2" fill="#fff" opacity="0.25"/><circle cx="308" cy="152" r="3.2" fill="#fff" opacity="0.35"/><circle cx="687" cy="363" r="1.2" fill="#fff" opacity="0.45"/><circle cx="1066" cy="574" r="2.2" fill="#fff" opacity="0.55"/><circle cx="1445" cy="785" r="3.2" fill="#fff" opacity="0.65"/><circle cx="1824" cy="996" r="1.2" fill="#fff" opacity="0.75"/><circle cx="2203" cy="1207" r="2.2" fill="#fff" opacity="0.85"/><circle cx="2582" cy="1418" r="3.2" fill="#fff" opacity="0.25"/><circle cx="2961" cy="249" r="1.2" fill="#fff" opacity="0.35"/><circle cx="3340" cy="460" r="2.2" fill="#fff" opacity="0.45"/><circle cx="3719" cy="671" r="3.2" fill="#fff" opacity="0.55"/><circle cx="258" cy="882" r="1.2" fill="#fff" opacity="0.65"/><circle cx="637" cy="1093" r="2.2" fill="#fff" opacity="0.75"/><circle cx="1016" cy="1304" r="3.2" fill="#fff" opacity="0.85"/><circle cx="1395" cy="135" r="1.2" fill="#fff" opacity="0.25"/><circle cx="1774" cy="346" r="2.2" fill="#fff" opacity="0.35"/><circle cx="2153" cy="557" r="3.2" fill="#fff" opacity="0.45"/><circle cx="2532" cy="768" r="1.2" fill="#fff" opacity="0.55"/><circle cx="2911" cy="979" r="2.2" fill="#fff" opacity="0.65"/><circle cx="3290" cy="1190" r="3.2" fill="#fff" opacity="0.75"/><circle cx="3669" cy="1401" r="1.2" fill="#fff" opacity="0.85"/><circle cx="208" cy="232" r="2.2" fill="#fff" opacity="0.25"/><circle cx="587" cy="443" r="3.2" fill="#fff" opacity="0.35"/><circle cx="966" cy="654" r="1.2" fill="#fff" opacity="0.45"/><circle cx="1345" cy="865" r="2.2" fill="#fff" opacity="0.55"/><circle cx="1724" cy="1076" r="3.2" fill="#fff" opacity="0.65"/><circle cx="2103" cy="1287" r="1.2" fill="#fff" opacity="0.75"/><circle cx="2482" cy="118" r="2.2" fill="#fff" opacity="0.85"/><circle cx="2861" cy="329" r="3.2" fill="#fff" opacity="0.25"/><circle cx="3240" cy="540" r="1.2" fill="#fff" opacity="0.35"/><circle cx="3619" cy="751" r="2.2" fill="#fff" opacity="0.45"/><circle cx="158" cy="962" r="3.2" fill="#fff" opacity="0.55"/><circle cx="537" cy="1173" r="1.2" fill="#fff" opacity="0.65"/><circle cx="916" cy="1384" r="2.2" fill="#fff" opacity="0.75"/><circle cx="1295" cy="215" r="3.2" fill="#fff" opacity="0.85"/><circle cx="1674" cy="426" r="1.2" fill="#fff" opacity="0.25"/><circle cx="2053" cy="637" r="2.2" fill="#fff" opacity="0.35"/><circle cx="2432" cy="848" r="3.2" fill="#fff" opacity="0.45"/><circle cx="2811" cy="1059" r="1.2" fill="#fff" opacity="0.55"/><circle cx="3190" cy="1270" r="2.2" fill="#fff" opacity="0.65"/><circle cx="3569" cy="101" r="3.2" fill="#fff" opacity="0.75"/><circle cx="108" cy="312" r="1.2" fill="#fff" opacity="0.85"/><circle cx="487" cy="523" r="2.2" fill="#fff" opacity="0.25"/><circle cx="866" cy="734" r="3.2" fill="#fff" opacity="0.35"/><circle cx="1245" cy="945" r="1.2" fill="#fff" opacity="0.45"/><circle cx="1624" cy="1156" r="2.2" fill="#fff" opacity="0.55"/><circle cx="2003" cy="1367" r="3.2" fill="#fff" opacity="0.65"/><circle cx="2382" cy="198" r="1.2" fill="#fff" opacity="0.75"/><circle cx="2761" cy="409" r="2.2" fill="#fff" opacity="0.85"/><circle cx="3140" cy="620" r="3.2" fill="#fff" opacity="0.25"/><circle cx="3519" cy="831" r="1.2" fill="#fff" opacity="0.35"/><circle cx="58" cy="1042" r="2.2" fill="#fff" opacity="0.45"/><circle cx="437" cy="1253" r="3.2" fill="#fff" opacity="0.55"/><circle cx="816" cy="84" r="1.2" fill="#fff" opacity="0.65"/><circle cx="1195" cy="295" r="2.2" fill="#fff" opacity="0.75"/><circle cx="1574" cy="506" r="3.2" fill="#fff" opacity="0.85"/><circle cx="1953" cy="717" r="1.2" fill="#fff" opacity="0.25"/><circle cx="2332" cy="928" r="2.2" fill="#fff" opacity="0.35"/><circle cx="2711" cy="1139" r="3.2" fill="#fff" opacity="0.45"/><circle cx="3090" cy="1350" r="1.2" fill="#fff" opacity="0.55"/><circle cx="3469" cy="181" r="2.2" fill="#fff" opacity="0.65"/><circle cx="8" cy="392" r="3.2" fill="#fff" opacity="0.75"/><circle cx="387" cy="603" r="1.2" fill="#fff" opacity="0.85"/><circle cx="766" cy="814" r="2.2" fill="#fff" opacity="0.25"/><circle cx="1145" cy="1025" r="3.2" fill="#fff" opacity="0.35"/><circle cx="1524" cy="1236" r="1.2" fill="#fff" opacity="0.45"/><circle cx="1903" cy="67" r="2.2" fill="#fff" opacity="0.55"/><circle cx="2282" cy="278" r="3.2" fill="#fff" opacity="0.65"/><circle cx="2661" cy="489" r="1.2" fill="#fff" opacity="0.75"/><circle cx="3040" cy="700" r="2.2" fill="#fff" opacity="0.85"/><circle cx="3419" cy="911" r="3.2" fill="#fff" opacity="0.25"/><circle cx="3798" cy="1122" r="1.2" fill="#fff" opacity="0.35"/><circle cx="337" cy="1333" r="2.2" fill="#fff" opacity="0.45"/><circle cx="716" cy="164" r="3.2" fill="#fff" opacity="0.55"/><circle cx="1095" cy="375" r="1.2" fill="#fff" opacity="0.65"/><circle cx="1474" cy="586" r="2.2" fill="#fff" opacity="0.75"/><circle cx="1853" cy="797" r="3.2" fill="#fff" opacity="0.85"/><circle cx="2232" cy="1008" r="1.2" fill="#fff" opacity="0.25"/><circle cx="2611" cy="1219" r="2.2" fill="#fff" opacity="0.35"/><circle cx="2990" cy="1430" r="3.2" fill="#fff" opacity="0.45"/><circle cx="3369" cy="261" r="1.2" fill="#fff" opacity="0.55"/><circle cx="3748" cy="472" r="2.2" fill="#fff" opacity="0.65"/><circle cx="287" cy="683" r="3.2" fill="#fff" opacity="0.75"/><circle cx="666" cy="894" r="1.2" fill="#fff" opacity="0.85"/><circle cx="1045" cy="1105" r="2.2" fill="#fff" opacity="0.25"/><circle cx="1424" cy="1316" r="3.2" fill="#fff" opacity="0.35"/><circle cx="1803" cy="147" r="1.2" fill="#fff" opacity="0.45"/><circle cx="2182" cy="358" r="2.2" fill="#fff" opacity="0.55"/><circle cx="2561" cy="569" r="3.2" fill="#fff" opacity="0.65"/><circle cx="2940" cy="780" r="1.2" fill="#fff" opacity="0.75"/><circle cx="3319" cy="991" r="2.2" fill="#fff" opacity="0.85"/><circle cx="3698" cy="1202" r="3.2" fill="#fff" opacity="0.25"/><circle cx="237" cy="1413" r="1.2" fill="#fff" opacity="0.35"/><circle cx="616" cy="244" r="2.2" fill="#fff" opacity="0.45"/><circle cx="995" cy="455" r="3.2" fill="#fff" opacity="0.55"/><circle cx="1374" cy="666" r="1.2" fill="#fff" opacity="0.65"/><circle cx="1753" cy="877" r="2.2" fill="#fff" opacity="0.75"/><circle cx="2132" cy="1088" r="3.2" fill="#fff" opacity="0.85"/><circle cx="2511" cy="1299" r="1.2" fill="#fff" opacity="0.25"/>
</g>
<g filter="url(#glow)" opacity=".85">
<path d="M2550 230 L2810 118 L2640 300Z" fill="#fff"/>
<path d="M2550 230 L2140 460" stroke="#ff9d55" stroke-width="10" stroke-linecap="round"/>
</g>
<g transform="translate(2100 420) scale(1.45)" filter="url(#glow)">
<g fill="none" stroke="#48cfff"><circle cx="450" cy="450" r="330" stroke-width="24" opacity=".8"/><circle cx="450" cy="450" r="255" stroke-width="9" opacity=".75"/><circle cx="450" cy="450" r="180" stroke-width="6" opacity=".6"/><path d="M450 125 A325 325 0 0 1 775 450" stroke-width="38" stroke="#8e4bff"/><path d="M125 450 A325 325 0 0 1 450 125" stroke-width="30" stroke="#15aeff"/></g>
</g><g transform="translate(1530 850) scale(.75)" filter="url(#glow)">
<path d="M70 280 C210 95 560 20 1045 120 C1165 145 1230 190 1255 248 C1160 273 1085 307 1008 362 C655 482 288 430 70 280Z" fill="url(#shipMetal)" stroke="#8bcaff" stroke-width="4"/>
<path d="M170 290 C350 170 650 135 1040 188 C1120 200 1180 220 1215 250 C1040 267 905 310 780 363 C515 420 305 388 170 290Z" fill="#030713" opacity=".45"/>
<path d="M472 185 C602 115 744 113 830 169 C744 187 622 204 472 185Z" fill="#050b15" stroke="#69cfff" stroke-width="4"/>
<path d="M865 100 L1160 0 L1080 142 Z" fill="#7e93ad" stroke="#96d7ff" stroke-width="4"/>
<path d="M820 390 L1165 500 L1040 335 Z" fill="#6f849f" stroke="#96d7ff" stroke-width="4"/>
<path d="M1040 185 L1280 205 L1248 318 L1030 330 C1080 278 1090 230 1040 185Z" fill="#10192a" stroke="#6bc8ff" stroke-width="4"/>
<ellipse cx="1212" cy="260" rx="82" ry="46" fill="url(#blue)" opacity=".9"/>
<path d="M1250 242 C1400 202 1540 217 1640 255 C1515 305 1370 304 1250 277Z" fill="url(#blue)" opacity=".55"/>
<path d="M180 309 C390 355 690 345 965 260" fill="none" stroke="#24dfff" stroke-width="8"/>
</g>
</svg>